<?xml version="1.0" encoding="UTF-8"?>
<svg width="64" height="64" viewBox="0 0 64 64" fill="none" xmlns="http://www.w3.org/2000/svg">
  <rect width="64" height="64" rx="8" fill="#F5F5F5"/>
  <path d="M32 16C23.164 16 16 23.164 16 32C16 40.836 23.164 48 32 48C40.836 48 48 40.836 48 32C48 23.164 40.836 16 32 16ZM32 44C25.373 44 20 38.627 20 32C20 25.373 25.373 20 32 20C38.627 20 44 25.373 44 32C44 38.627 38.627 44 32 44Z" fill="#BFBFBF"/>
  <path d="M32 24C28.686 24 26 26.686 26 30V34C26 37.314 28.686 40 32 40C35.314 40 38 37.314 38 34V30C38 26.686 35.314 24 32 24ZM34 34C34 35.103 33.103 36 32 36C30.897 36 30 35.103 30 34V30C30 28.897 30.897 28 32 28C33.103 28 34 28.897 34 30V34Z" fill="#BFBFBF"/>
</svg> 